<svg version="1.1" id="social-github" xmlns="http://www.w3.org/2000/svg" xmlns:xlink="http://www.w3.org/1999/xlink" x="0px" y="0px"
	 viewBox="-293 385 24 24" style="enable-background:new -293 385 24 24; width: 30px; height: 30px;" xml:space="preserve">
<style type="text/css">
	.st0{fill:#666666;}
</style>
<path class="st0" d="M-274,385h-14c-2.8,0-5,2.2-5,5v14c0,2.8,2.2,5,5,5h14c2.8,0,5-2.2,5-5v-14C-269,387.2-271.2,385-274,385z
	 M-278.5,404.6c-0.4,0.1-0.5-0.2-0.5-0.4V402c0-0.7-0.3-1.2-0.5-1.5c1.8-0.2,3.7-0.9,3.7-3.9c0-0.9-0.3-1.6-0.8-2.1
	c0.1-0.2,0.4-1-0.1-2.1c0,0-0.7-0.2-2.2,0.8c-0.6-0.2-1.3-0.3-2-0.3c-0.7,0-1.4,0.1-2,0.3c-1.5-1-2.2-0.8-2.2-0.8
	c-0.4,1.1-0.2,1.9-0.1,2.1c-0.5,0.6-0.8,1.3-0.8,2.1c0,3.1,1.9,3.8,3.6,4c-0.2,0.2-0.4,0.6-0.5,1.1c-0.5,0.2-1.6,0.6-2.3-0.7
	c0,0-0.4-0.8-1.2-0.8c0,0-0.8,0-0.1,0.5c0,0,0.5,0.2,0.9,1.2c0,0,0.5,1.4,2.7,0.9v1.5c0,0.2-0.1,0.5-0.5,0.4
	c-3.2-1.1-5.5-4.1-5.5-7.6c0-4.4,3.6-8,8-8s8,3.6,8,8C-273,400.5-275.3,403.5-278.5,404.6z"/>
</svg>
