<svg version="1.1" id="social-linkedin" xmlns="http://www.w3.org/2000/svg" xmlns:xlink="http://www.w3.org/1999/xlink" x="0px" y="0px"
	 viewBox="-293 385 24 24" style="enable-background:new -293 385 24 24; width: 30px; height: 30px;" xml:space="preserve">
<style type="text/css">
	.st0{fill:#666666;}
</style>
<path class="st0" d="M-274,385h-14c-2.8,0-5,2.2-5,5v14c0,2.8,2.2,5,5,5h14c2.8,0,5-2.2,5-5v-14C-269,387.2-271.2,385-274,385z
	 M-285,404h-3v-11h3V404z M-286.5,391.7c-1,0-1.8-0.8-1.8-1.8s0.8-1.8,1.8-1.8s1.8,0.8,1.8,1.8S-285.5,391.7-286.5,391.7z M-273,404
	h-3v-5.6c0-3.4-4-3.1-4,0v5.6h-3v-11h3v1.8c1.4-2.6,7-2.8,7,2.5V404z"/>
</svg>
